<svg xmlns="http://www.w3.org/2000/svg" xmlns:xlink="http://www.w3.org/1999/xlink" version="1.1" x="0px" y="0px" viewBox="0 0 100 125" style="enable-background:new 0 0 100 100;" xml:space="preserve">
  <path d="M64,71v3.4H36V71c0-0.6,0.4-1,1-1h7v-5.4H56V70h7C63.5,70,64,70.4,64,71z M80,26.7v34.9c0,0.6-0.4,1-1,1H21  c-0.6,0-1-0.4-1-1V26.7c0-0.6,0.4-1,1-1h58C79.6,25.7,80,26.1,80,26.7z M76,29.7H24v28.9h52V29.7z M43.4,54.4  c0.2,0.2,0.5,0.3,0.7,0.3s0.5-0.1,0.7-0.3c0.4-0.4,0.4-1,0-1.4l-8.9-8.9l8.9-8.9c0.4-0.4,0.4-1,0-1.4s-1-0.4-1.4,0l-9.6,9.6  c-0.4,0.4-0.4,1,0,1.4L43.4,54.4z M55.2,54.4c0.2,0.2,0.5,0.3,0.7,0.3s0.5-0.1,0.7-0.3l9.6-9.6c0.2-0.2,0.3-0.4,0.3-0.7  s-0.1-0.5-0.3-0.7l-9.6-9.6c-0.4-0.4-1-0.4-1.4,0s-0.4,1,0,1.4l8.9,8.9L55.2,53C54.8,53.4,54.8,54,55.2,54.4z M47.5,54.5  c0.1,0,0.2,0,0.2,0c0.5,0,0.9-0.3,1-0.8l4.5-19c0.1-0.5-0.2-1.1-0.7-1.2c-0.5-0.1-1.1,0.2-1.2,0.7l-4.5,19  C46.6,53.8,47,54.4,47.5,54.5z"/>
</svg>
